# xmcd CD database file
# Copyright (C) 1993-1998 Ti Kan
#
# Track frame offsets:
# 150
# 20885
# 41695
# 61755
# 79137
# 90605
# 109590
# 130322
# 158557
# 181060
#
# Disc length: 2654 seconds
# Revision: 0
# Processed by: cddbd v1.4b41PL1 Copyright (c) Steve Scherf et al.
# Submitted via: CDSpectrumPro v3.3.331
#
DISCID=760a5c0a
DTITLE=Gladys Knight and The Pips - Midnight Train To Georgia
DYEAR=1900
DGENRE=
TTITLE0=Make yours A Happy Home
TTITLE1=Midnight Train To Georgia
TTITLE2=Where Peaceful Waters Flow
TTITLE3=So Sad The Song
TTITLE4=Part Time Love
TTITLE5=The Need To Be
TTITLE6=Georgia on my Mind
TTITLE7=Feel Like Making Love
TTITLE8=Walk Softly
TTITLE9=Storms of Trouble Times
EXTD=
EXTT0=
EXTT1=
EXTT2=
EXTT3=
EXTT4=
EXTT5=
EXTT6=
EXTT7=
EXTT8=
EXTT9=
PLAYORDER=
